<svg width="512" height="512" viewBox="0 0 512 512" fill="none" xmlns="http://www.w3.org/2000/svg">
<path d="M376.946 183.77H336.631C324.536 183.77 316.473 191.834 316.473 203.928C316.473 216.023 324.536 224.086 336.631 224.086H376.946C389.041 224.086 397.104 232.149 397.104 244.244V385.347C397.104 397.442 389.041 405.505 376.946 405.505H135.054C122.959 405.505 114.896 397.442 114.896 385.347V244.244C114.896 232.149 122.959 224.086 135.054 224.086H175.369C187.464 224.086 195.527 216.023 195.527 203.928C195.527 191.834 187.464 183.77 175.369 183.77H135.054C100.786 183.77 74.5806 209.975 74.5806 244.244V385.347C74.5806 419.616 100.786 445.821 135.054 445.821H376.946C411.214 445.821 437.419 419.616 437.419 385.347V244.244C437.419 209.975 411.214 183.77 376.946 183.77ZM181.416 298.669L241.889 359.142C245.921 363.174 249.953 365.19 256 365.19C262.047 365.19 266.079 363.174 270.11 359.142L330.583 298.669C338.646 290.606 338.646 278.512 330.583 270.449C322.52 262.386 310.426 262.386 302.363 270.449L276.158 296.654V62.8243C276.158 50.7297 268.094 42.6666 256 42.6666C243.905 42.6666 235.842 50.7297 235.842 62.8243V296.654L209.637 270.449C201.574 262.386 189.479 262.386 181.416 270.449C173.353 278.512 173.353 290.606 181.416 298.669Z" fill="#FFD338"/>
</svg>
