<svg width="1098" height="1098" viewBox="0 0 1098 1098" fill="none" xmlns="http://www.w3.org/2000/svg">
<g clip-path="url(#clip0_32_4)">
<path fill-rule="evenodd" clip-rule="evenodd" d="M982.63 868.57H334.089C319.537 868.57 305.384 865.692 292.022 860.015C279.175 854.557 267.635 846.764 257.721 836.85C247.806 826.936 240.012 815.396 234.554 802.548C228.878 789.188 226 775.034 226 760.481V472.241C226 457.688 228.878 443.534 234.554 430.172C240.012 417.326 247.806 405.784 257.721 395.87C267.635 385.956 279.175 378.162 292.022 372.705C305.384 367.028 319.537 364.15 334.089 364.15H520.421C530.046 364.15 539.094 360.401 545.898 353.597L683.837 215.658C693.925 205.571 705.724 197.687 718.904 192.227C732.084 186.768 746.002 184 760.268 184H982.63C997.206 184 1011.37 186.863 1024.71 192.508C1037.59 197.955 1049.15 205.744 1059.06 215.658C1068.98 225.575 1076.77 237.13 1082.21 250.005C1087.86 263.355 1090.72 277.513 1090.72 292.09V760.481C1090.72 775.034 1087.84 789.188 1082.17 802.548C1076.71 815.396 1068.91 826.936 1059 836.85C1049.08 846.764 1037.55 854.557 1024.7 860.015C1011.34 865.692 997.183 868.57 982.63 868.57ZM334.089 436.211C314.223 436.211 298.06 452.374 298.06 472.241V760.481C298.06 780.348 314.223 796.511 334.089 796.511H982.63C1002.5 796.511 1018.66 780.348 1018.66 760.481V292.09C1018.66 272.223 1002.5 256.059 982.63 256.059H760.268C750.645 256.059 741.595 259.808 734.791 266.613L596.852 404.551C586.765 414.639 574.967 422.522 561.787 427.982C548.607 433.442 534.689 436.211 520.421 436.211H334.089Z" fill="#FFD338"/>
<path d="M896.781 654.656L874.507 676.93L817.938 620.361L760.663 677.637L737.328 654.302L794.604 597.026L737.682 540.104L759.955 517.831L816.878 574.753L874.153 517.477L897.488 540.811L840.212 598.087L896.781 654.656Z" fill="#FFD338"/>
</g>
<defs>
<clipPath id="clip0_32_4">
<rect width="1098" height="1098" fill="white"/>
</clipPath>
</defs>
</svg>
