<svg width="34" height="35" viewBox="0 0 34 35" fill="none" xmlns="http://www.w3.org/2000/svg">
<path d="M27.0561 20.291C26.6342 20.291 26.2295 20.4618 25.9311 20.7659C25.6327 21.0698 25.4651 21.4822 25.4651 21.9122V22.5281L23.1103 20.1289C22.2788 19.2885 21.1551 18.8168 19.9838 18.8168C18.8126 18.8168 17.6888 19.2885 16.8574 20.1289L15.7436 21.2637L11.7977 17.2434C10.9546 16.4257 9.83519 15.9697 8.67127 15.9697C7.50727 15.9697 6.38787 16.4257 5.5448 17.2434L3.18997 19.6426V10.5644C3.18997 10.1345 3.3576 9.72214 3.65599 9.41811C3.95438 9.11415 4.3591 8.94333 4.78108 8.94333H15.9186C16.3406 8.94333 16.7453 8.77251 17.0437 8.46855C17.3421 8.16452 17.5097 7.7522 17.5097 7.32226C17.5097 6.89231 17.3421 6.47996 17.0437 6.17594C16.7453 5.87192 16.3406 5.70113 15.9186 5.70113H4.78108C3.51511 5.70113 2.30102 6.21352 1.40586 7.12552C0.510711 8.03762 0.0078125 9.27457 0.0078125 10.5644V30.0176C0.0078125 31.3074 0.510711 32.5445 1.40586 33.4565C2.30102 34.3686 3.51511 34.8809 4.78108 34.8809H23.874C25.1399 34.8809 26.354 34.3686 27.2492 33.4565C28.1444 32.5445 28.6473 31.3074 28.6473 30.0176V21.9122C28.6473 21.4822 28.4796 21.0698 28.1812 20.7659C27.8828 20.4618 27.4781 20.291 27.0561 20.291ZM4.78108 31.6388C4.3591 31.6388 3.95438 31.4679 3.65599 31.1639C3.3576 30.8599 3.18997 30.4476 3.18997 30.0176V24.2303L7.80411 19.5291C8.03785 19.3022 8.34833 19.1756 8.67127 19.1756C8.99413 19.1756 9.30462 19.3022 9.53836 19.5291L14.5821 24.668L21.4237 31.6388H4.78108ZM25.4651 30.0176C25.4628 30.3279 25.3624 30.6292 25.1787 30.8768L18.003 23.5332L19.1167 22.3985C19.2307 22.2799 19.3669 22.1856 19.5172 22.1213C19.6674 22.0569 19.8288 22.0238 19.9918 22.0238C20.1548 22.0238 20.3161 22.0569 20.4664 22.1213C20.6167 22.1856 20.7528 22.2799 20.8669 22.3985L25.4651 27.1159V30.0176ZM32.9591 6.17125L28.1858 1.30795C28.0345 1.16037 27.8561 1.04467 27.6608 0.96752C27.2734 0.805382 26.8389 0.805382 26.4516 0.96752C26.2563 1.04467 26.0779 1.16037 25.9265 1.30795L21.1533 6.17125C21.0049 6.3224 20.8873 6.50184 20.8069 6.69932C20.7267 6.89679 20.6854 7.1085 20.6854 7.32226C20.6854 7.75395 20.8536 8.16794 21.1533 8.47319C21.4529 8.77844 21.8592 8.94994 22.2829 8.94994C22.7066 8.94994 23.113 8.77844 23.4126 8.47319L25.4651 6.36578V15.4277C25.4651 15.8577 25.6327 16.27 25.9311 16.574C26.2295 16.878 26.6342 17.0489 27.0561 17.0489C27.4781 17.0489 27.8828 16.878 28.1812 16.574C28.4796 16.27 28.6473 15.8577 28.6473 15.4277V6.36578L30.6998 8.47319C30.8477 8.62517 31.0236 8.74576 31.2175 8.82806C31.4114 8.91035 31.6194 8.95275 31.8294 8.95275C32.0395 8.95275 32.2474 8.91035 32.4413 8.82806C32.6352 8.74576 32.8112 8.62517 32.9591 8.47319C33.1082 8.3225 33.2266 8.14324 33.3074 7.94567C33.3881 7.7481 33.4297 7.53624 33.4297 7.32226C33.4297 7.1082 33.3881 6.89634 33.3074 6.69879C33.2266 6.50125 33.1082 6.32195 32.9591 6.17125Z" fill="black"/>
</svg>
