<svg width="512" height="512" viewBox="0 0 512 512" fill="none" xmlns="http://www.w3.org/2000/svg">
<path fill-rule="evenodd" clip-rule="evenodd" d="M407.208 415.608H104.792C98.0063 415.608 91.4064 414.266 85.176 411.619C79.1854 409.074 73.804 405.44 69.181 400.817C64.558 396.194 60.9236 390.813 58.3786 384.822C55.7318 378.592 54.3896 371.992 54.3896 365.206V230.799C54.3896 224.013 55.7318 217.413 58.3786 211.182C60.9236 205.192 64.558 199.81 69.181 195.187C73.804 190.564 79.1854 186.93 85.176 184.385C91.4064 181.738 98.0063 180.396 104.792 180.396H191.679C196.167 180.396 200.386 178.648 203.559 175.475L267.88 111.154C272.584 106.45 278.086 102.774 284.232 100.228C290.378 97.6825 296.868 96.3916 303.52 96.3916H407.208C414.005 96.3916 420.608 97.7266 426.832 100.359C432.836 102.899 438.225 106.531 442.848 111.154C447.471 115.778 451.104 121.166 453.643 127.17C456.276 133.395 457.611 139.997 457.611 146.794V365.206C457.611 371.992 456.269 378.592 453.622 384.822C451.077 390.813 447.442 396.194 442.819 400.817C438.196 405.44 432.815 409.074 426.824 411.619C420.594 414.266 413.994 415.608 407.208 415.608ZM104.792 213.998C95.5283 213.998 87.9914 221.535 87.9914 230.799V365.206C87.9914 374.47 95.5283 382.007 104.792 382.007H407.208C416.472 382.007 424.009 374.47 424.009 365.206V146.794C424.009 137.53 416.472 129.993 407.208 129.993H303.52C299.033 129.993 294.813 131.741 291.64 134.914L227.319 199.235C222.615 203.939 217.114 207.615 210.968 210.161C204.822 212.707 198.332 213.998 191.679 213.998L104.792 213.998ZM306.403 348.405C297.124 348.405 289.602 340.883 289.602 331.604V298.002H256C246.721 298.002 239.199 290.48 239.199 281.201C239.199 271.922 246.721 264.4 256 264.4H289.602V230.799C289.602 221.52 297.124 213.998 306.403 213.998C315.682 213.998 323.204 221.52 323.204 230.799V264.4H356.805C366.084 264.4 373.606 271.922 373.606 281.201C373.606 290.48 366.084 298.002 356.805 298.002H323.204V331.604C323.204 340.883 315.682 348.405 306.403 348.405Z" fill="#FFD338"/>
</svg>
