<svg width="512" height="512" viewBox="0 0 512 512" fill="none" xmlns="http://www.w3.org/2000/svg">
<path d="M384 192H341.333C328.533 192 320 200.533 320 213.333C320 226.133 328.533 234.667 341.333 234.667H384C396.8 234.667 405.333 243.2 405.333 256V405.333C405.333 418.133 396.8 426.667 384 426.667H128C115.2 426.667 106.667 418.133 106.667 405.333V256C106.667 243.2 115.2 234.667 128 234.667H170.667C183.467 234.667 192 226.133 192 213.333C192 200.533 183.467 192 170.667 192H128C91.7333 192 64 219.733 64 256V405.333C64 441.6 91.7333 469.333 128 469.333H384C420.267 469.333 448 441.6 448 405.333V256C448 219.733 420.267 192 384 192ZM177.067 313.6L241.067 377.6C245.333 381.867 249.6 384 256 384C262.4 384 266.667 381.867 270.933 377.6L334.933 313.6C343.467 305.067 343.467 292.267 334.933 283.733C326.4 275.2 313.6 275.2 305.067 283.733L277.333 311.467V64C277.333 51.2 268.8 42.6666 256 42.6666C243.2 42.6666 234.667 51.2 234.667 64V311.467L206.933 283.733C198.4 275.2 185.6 275.2 177.067 283.733C168.533 292.267 168.533 305.067 177.067 313.6Z" fill="#FFD338"/>
</svg>
