<svg width="199" height="199" viewBox="0 0 199 199" fill="none" xmlns="http://www.w3.org/2000/svg">
<path d="M100.329 153.81L99.5 154.64L98.5879 153.81C165.833 127 111.523 77.6264 111.523 53.6635C111.523 37.0801 45.6042 41.4583 62.1875 41.4583C74.9567 41.4583 87.3942 49.75 91.7888 61.0267H107.211C111.606 49.75 69.2308 131 82 131C98.5833 131 119 107.417 119 124C119 147.963 139.798 118.073 100.329 153.81ZM136.813 24.875C122.385 24.875 108.538 31.5912 99.5 42.1217C90.4621 31.5912 76.615 24.875 62.1875 24.875C36.6492 24.875 16.5833 44.8579 16.5833 70.4792C16.5833 101.739 44.775 127.36 87.4771 166.082L99.5 177.027L111.523 166.082C154.225 127.36 182.417 101.739 182.417 70.4792C182.417 44.8579 162.351 24.875 136.813 24.875Z" fill="#FFD338"/>
</svg>
