<svg width="48" height="48" viewBox="0 0 48 48" fill="none" xmlns="http://www.w3.org/2000/svg">
<path d="M18.3493 39.4855C18.3493 32.6704 23.8129 27.0668 30.6237 27.0668V26.9911C23.8877 26.9911 18.3493 21.4633 18.3493 14.5724H18.2744C18.2744 21.3875 12.8108 26.9911 6 26.9911L6.14969 27.0668C12.8857 27.0668 18.3493 32.5947 18.3493 39.4855ZM33.6175 24.0379C33.6175 19.343 37.3597 15.5568 42 15.5568V15.4811C37.3597 15.4811 33.6175 11.6949 33.6175 7H33.5426C33.5426 11.6949 29.8004 15.4811 25.1601 15.4811L25.2349 15.5568C29.8753 15.5568 33.6175 19.343 33.6175 24.0379ZM30.3992 31.7617C30.3992 34.3363 28.3035 36.3808 25.8337 36.3808C28.3784 36.3808 30.3992 38.4254 30.3992 41C30.3992 38.4254 32.42 36.3808 34.9647 36.3808C32.42 36.3808 30.3992 34.3363 30.3992 31.7617Z" fill="#FFD338"/>
</svg>
