<svg width="1098" height="1098" viewBox="0 0 1098 1098" fill="none" xmlns="http://www.w3.org/2000/svg">
<path fill-rule="evenodd" clip-rule="evenodd" d="M847.63 868.57H199.089C184.537 868.57 170.384 865.692 157.022 860.015C144.175 854.557 132.635 846.764 122.721 836.85C112.806 826.936 105.012 815.396 99.5545 802.548C93.8783 789.188 90.9999 775.034 90.9999 760.481V472.241C90.9999 457.688 93.8783 443.534 99.5545 430.172C105.012 417.326 112.806 405.784 122.721 395.87C132.635 385.956 144.175 378.162 157.022 372.705C170.384 367.028 184.537 364.15 199.089 364.15H385.421C395.046 364.15 404.094 360.401 410.898 353.597L548.837 215.658C558.925 205.571 570.724 197.687 583.904 192.227C597.084 186.768 611.002 184 625.268 184H847.63C862.206 184 876.367 186.863 889.714 192.508C902.59 197.955 914.147 205.744 924.061 215.658C933.975 225.575 941.766 237.13 947.211 250.005C952.858 263.355 955.721 277.513 955.721 292.09V760.481C955.721 775.034 952.843 789.188 947.166 802.548C941.708 815.396 933.913 826.936 923.999 836.85C914.085 846.764 902.545 854.557 889.697 860.015C876.337 865.692 862.183 868.57 847.63 868.57ZM199.089 436.211C179.223 436.211 163.06 452.374 163.06 472.241V760.481C163.06 780.348 179.223 796.511 199.089 796.511H847.63C867.497 796.511 883.66 780.348 883.66 760.481V292.09C883.66 272.223 867.497 256.059 847.63 256.059H625.268C615.645 256.059 606.595 259.808 599.791 266.613L461.852 404.551C451.765 414.639 439.967 422.522 426.787 427.982C413.607 433.442 399.689 436.211 385.421 436.211H199.089Z" fill="#FFD338"/>
<path d="M761.781 654.656L739.507 676.93L682.938 620.361L625.663 677.637L602.328 654.302L659.604 597.026L602.682 540.104L624.955 517.831L681.878 574.753L739.153 517.477L762.488 540.811L705.212 598.087L761.781 654.656Z" fill="#FFD338"/>
</svg>
